<svg width="22" height="23" viewBox="0 0 22 23" fill="none" xmlns="http://www.w3.org/2000/svg">
<path d="M11.2287 2.56348C13.6432 2.56348 13.9445 2.57236 14.8918 2.6168C15.8383 2.66123 16.4825 2.80964 17.0495 3.03003C17.6361 3.25576 18.1302 3.56147 18.6243 4.05468C19.0762 4.49893 19.4258 5.03631 19.6489 5.62943C19.8684 6.19551 20.0177 6.8407 20.0622 7.78714C20.1039 8.73448 20.1155 9.03574 20.1155 11.4503C20.1155 13.8648 20.1066 14.1661 20.0622 15.1134C20.0177 16.0599 19.8684 16.7042 19.6489 17.2711C19.4265 17.8646 19.0767 18.4021 18.6243 18.8459C18.1799 19.2976 17.6425 19.6473 17.0495 19.8705C16.4834 20.09 15.8383 20.2393 14.8918 20.2838C13.9445 20.3255 13.6432 20.3371 11.2287 20.3371C8.81412 20.3371 8.51286 20.3282 7.56552 20.2838C6.61908 20.2393 5.97478 20.09 5.40781 19.8705C4.81446 19.6479 4.27698 19.2982 3.83306 18.8459C3.38109 18.4017 3.03141 17.8643 2.80842 17.2711C2.58802 16.7051 2.43961 16.0599 2.39518 15.1134C2.35341 14.1661 2.34186 13.8648 2.34186 11.4503C2.34186 9.03574 2.35074 8.73448 2.39518 7.78714C2.43961 6.83981 2.58802 6.1964 2.80842 5.62943C3.0308 5.03595 3.38055 4.49842 3.83306 4.05468C4.27711 3.60255 4.81455 3.25285 5.40781 3.03003C5.97478 2.80964 6.61819 2.66123 7.56552 2.6168C8.51286 2.57503 8.81412 2.56348 11.2287 2.56348ZM11.2287 7.00688C10.0502 7.00688 8.92 7.47502 8.0867 8.30832C7.2534 9.14162 6.78526 10.2718 6.78526 11.4503C6.78526 12.6287 7.2534 13.7589 8.0867 14.5922C8.92 15.4255 10.0502 15.8937 11.2287 15.8937C12.4071 15.8937 13.5373 15.4255 14.3706 14.5922C15.2039 13.7589 15.6721 12.6287 15.6721 11.4503C15.6721 10.2718 15.2039 9.14162 14.3706 8.30832C13.5373 7.47502 12.4071 7.00688 11.2287 7.00688ZM17.0051 6.78471C17.0051 6.49009 16.8881 6.20755 16.6797 5.99922C16.4714 5.7909 16.1889 5.67386 15.8942 5.67386C15.5996 5.67386 15.3171 5.7909 15.1087 5.99922C14.9004 6.20755 14.7834 6.49009 14.7834 6.78471C14.7834 7.07933 14.9004 7.36188 15.1087 7.5702C15.3171 7.77853 15.5996 7.89556 15.8942 7.89556C16.1889 7.89556 16.4714 7.77853 16.6797 7.5702C16.8881 7.36188 17.0051 7.07933 17.0051 6.78471ZM11.2287 8.78424C11.9357 8.78424 12.6139 9.06513 13.1138 9.56511C13.6138 10.0651 13.8947 10.7432 13.8947 11.4503C13.8947 12.1574 13.6138 12.8355 13.1138 13.3355C12.6139 13.8354 11.9357 14.1163 11.2287 14.1163C10.5216 14.1163 9.84347 13.8354 9.34349 13.3355C8.84351 12.8355 8.56262 12.1574 8.56262 11.4503C8.56262 10.7432 8.84351 10.0651 9.34349 9.56511C9.84347 9.06513 10.5216 8.78424 11.2287 8.78424Z" fill="white"/>
</svg>
