<svg width="23" height="24" viewBox="0 0 23 24" fill="none" xmlns="http://www.w3.org/2000/svg">
<path d="M19.7481 2.21045H3.46508C2.57535 2.21045 1.79797 2.85064 1.79797 3.72992V20.0491C1.79797 20.9332 2.57535 21.721 3.46508 21.721H19.7434C20.6379 21.721 21.3086 20.928 21.3086 20.0491V3.72992C21.3138 2.85064 20.6379 2.21045 19.7481 2.21045ZM7.84582 18.4735H5.05075V9.78299H7.84582V18.4735ZM6.54497 8.46167H6.52494C5.63041 8.46167 5.05119 7.79579 5.05119 6.96223C5.05119 6.11344 5.64565 5.46323 6.56021 5.46323C7.47477 5.46323 8.03439 6.10865 8.05443 6.96223C8.05399 7.79579 7.47477 8.46167 6.54497 8.46167ZM18.061 18.4735H15.2659V13.7217C15.2659 12.5833 14.8592 11.8055 13.8479 11.8055C13.0754 11.8055 12.6181 12.3281 12.4147 12.8372C12.3385 13.0201 12.318 13.2692 12.318 13.5235V18.4735H9.52295V9.78299H12.318V10.9924C12.7248 10.4132 13.3602 9.57961 14.8387 9.57961C16.6735 9.57961 18.0614 10.789 18.0614 13.3964L18.061 18.4735Z" fill="white"/>
</svg>
