<svg width="250" height="221" viewBox="0 0 250 221" fill="none" xmlns="http://www.w3.org/2000/svg">
<g clip-path="url(#clip0_97_198)">
<path d="M249.63 110.64C249.63 175.45 205.63 220.37 141.71 220.37H79.1801C74.7377 220.37 70.4772 218.605 67.336 215.464C64.1948 212.323 62.4301 208.062 62.4301 203.62V180.29C62.4301 179.052 62.674 177.825 63.1479 176.681C63.6218 175.537 64.3164 174.498 65.192 173.622C66.0677 172.746 67.1073 172.052 68.2514 171.578C69.3955 171.104 70.6217 170.86 71.8601 170.86H131.21C146.048 170.813 160.264 164.897 170.756 154.406C181.247 143.914 187.163 129.698 187.21 114.86V105.53C187.163 90.6925 181.247 76.4762 170.756 65.9845C160.264 55.4927 146.048 49.5775 131.21 49.53H71.8601C69.3591 49.53 66.9605 48.5365 65.192 46.768C63.4236 44.9995 62.4301 42.601 62.4301 40.1V16.75C62.4301 12.3076 64.1948 8.0472 67.336 4.90596C70.4772 1.76473 74.7377 0 79.1801 0L139.6 0C204.72 0 249.63 44.92 249.63 110.64Z" fill="white"/>
<path d="M148.28 143.32H148.62C149.509 143.334 150.368 143.643 151.061 144.199C151.754 144.755 152.243 145.526 152.449 146.391C152.656 147.255 152.568 148.164 152.201 148.973C151.833 149.782 151.207 150.446 150.42 150.86C143.158 155.173 134.867 157.45 126.42 157.45H42.6001C33.9182 157.424 25.4102 155.014 18.0039 150.484C10.5976 145.954 4.57747 139.477 0.600054 131.76C0.203899 130.982 0.0144306 130.115 0.0498538 129.243C0.085277 128.371 0.344401 127.523 0.802329 126.78C1.26026 126.036 1.9016 125.424 2.66474 125C3.42788 124.576 4.28717 124.356 5.16005 124.36H73.5801C75.6094 124.359 77.6151 123.923 79.462 123.082C81.3089 122.241 82.9543 121.014 84.2873 119.484C85.6204 117.954 86.6103 116.156 87.1903 114.211C87.7703 112.267 87.9271 110.22 87.6501 108.21C87.1184 104.78 85.3674 101.657 82.7185 99.4141C80.0697 97.1712 76.7007 95.959 73.2301 95.9999H5.13005C4.25822 96.0013 3.40059 95.7792 2.63905 95.3547C1.87751 94.9303 1.2375 94.3177 0.780128 93.5755C0.322754 92.8332 0.0632906 91.9861 0.0265131 91.1151C-0.0102644 90.244 0.176872 89.3781 0.570054 88.5999C4.54835 80.8834 10.5687 74.4071 17.9748 69.8771C25.3808 65.347 33.8884 62.9371 42.5701 62.9099H126.38C138.03 62.8984 149.271 67.2059 157.93 74.9999C158.593 75.5642 159.054 76.3293 159.243 77.1793C159.432 78.0293 159.338 78.9176 158.976 79.7094C158.614 80.5013 158.003 81.1534 157.237 81.5668C156.471 81.9802 155.591 82.1322 154.73 81.9999C153.403 81.8349 152.067 81.7514 150.73 81.7499C142.769 81.7528 135.118 84.8349 129.379 90.351C123.639 95.8671 120.255 103.39 119.936 111.344C119.617 119.298 122.387 127.068 127.666 133.026C132.946 138.984 140.325 142.669 148.26 143.31L148.28 143.32Z" fill="white"/>
<path d="M153.55 132.09C164.253 132.09 172.93 123.413 172.93 112.71C172.93 102.007 164.253 93.3301 153.55 93.3301C142.847 93.3301 134.17 102.007 134.17 112.71C134.17 123.413 142.847 132.09 153.55 132.09Z" fill="white"/>
</g>
<defs>
<clipPath id="clip0_97_198">
<rect width="249.63" height="220.37" fill="white"/>
</clipPath>
</defs>
</svg>
