<svg width="37" height="25" viewBox="0 0 37 25" fill="none" xmlns="http://www.w3.org/2000/svg">
<path d="M6.5 2.49878C6.5 1.39421 7.39543 0.498779 8.5 0.498779H34.1384C35.243 0.498779 36.1384 1.39421 36.1384 2.49878V2.49878C36.1384 3.60335 35.243 4.49878 34.1384 4.49878H8.5C7.39543 4.49878 6.5 3.60335 6.5 2.49878V2.49878ZM16 12.4988C16 11.3942 16.8954 10.4988 18 10.4988H34.1384C35.243 10.4988 36.1384 11.3942 36.1384 12.4988V12.4988C36.1384 13.6033 35.243 14.4988 34.1384 14.4988H18C16.8954 14.4988 16 13.6033 16 12.4988V12.4988ZM6.5 22.4988C6.5 21.3942 7.39543 20.4988 8.5 20.4988H34.1384C35.243 20.4988 36.1384 21.3942 36.1384 22.4988V22.4988C36.1384 23.6033 35.243 24.4988 34.1384 24.4988L8.5 24.4988C7.39543 24.4988 6.5 23.6033 6.5 22.4988V22.4988Z" fill="white"/>
</svg>
