<svg width="40" height="40" viewBox="0 0 40 40" fill="none" xmlns="http://www.w3.org/2000/svg">
<g clip-path="url(#clip0_45_108)">
<path d="M6.78099 3.7839C6.78099 2.92082 7.12384 2.0931 7.73413 1.48281C8.34442 0.87252 9.17215 0.529663 10.0352 0.529663H36.0691C36.9322 0.529663 37.7599 0.87252 38.3702 1.48281C38.9805 2.0931 39.3234 2.92082 39.3234 3.7839V29.8178C39.3234 30.6809 38.9805 31.5086 38.3702 32.1189C37.7599 32.7292 36.9322 33.072 36.0691 33.072C35.206 33.072 34.3783 32.7292 33.768 32.1189C33.1577 31.5086 32.8149 30.6809 32.8149 29.8178V11.6396L5.82749 38.627C5.21374 39.2198 4.39171 39.5478 3.53846 39.5404C2.68521 39.533 1.86901 39.1907 1.26565 38.5874C0.662283 37.984 0.320038 37.1678 0.312623 36.3146C0.305209 35.4613 0.633219 34.6393 1.226 34.0255L28.2134 7.03814H10.0352C9.17215 7.03814 8.34442 6.69528 7.73413 6.08499C7.12384 5.47471 6.78099 4.64698 6.78099 3.7839Z" fill="white"/>
</g>
<defs>
<clipPath id="clip0_45_108">
<rect width="40" height="40" fill="white"/>
</clipPath>
</defs>
</svg>
