<svg width="50" height="50" viewBox="0 0 50 50" fill="none" xmlns="http://www.w3.org/2000/svg">
<g clip-path="url(#clip0_52_4)">
<path d="M8.47623 4.72991C8.47623 3.65106 8.90481 2.6164 9.66766 1.85354C10.4305 1.09068 11.4652 0.662109 12.544 0.662109H45.0864C46.1652 0.662109 47.1999 1.09068 47.9628 1.85354C48.7256 2.6164 49.1542 3.65106 49.1542 4.72991V37.2723C49.1542 38.3511 48.7256 39.3858 47.9628 40.1486C47.1999 40.9115 46.1652 41.3401 45.0864 41.3401C44.0076 41.3401 42.9729 40.9115 42.21 40.1486C41.4472 39.3858 41.0186 38.3511 41.0186 37.2723V14.5496L7.28437 48.2838C6.51717 49.0248 5.48964 49.4348 4.42308 49.4255C3.35651 49.4163 2.33626 48.9885 1.58206 48.2343C0.827854 47.48 0.400047 46.4598 0.390779 45.3932C0.381511 44.3267 0.791523 43.2991 1.53251 42.5319L35.2667 8.7977H12.544C11.4652 8.7977 10.4305 8.36913 9.66766 7.60627C8.90481 6.84341 8.47623 5.80875 8.47623 4.72991Z" fill="#FF154D"/>
</g>
<defs>
<clipPath id="clip0_52_4">
<rect width="50" height="50" fill="white"/>
</clipPath>
</defs>
</svg>
