<svg width="24" height="24" viewBox="0 0 24 24" fill="none" xmlns="http://www.w3.org/2000/svg">
<path d="M22.3867 5.58555C21.6026 5.92627 20.7729 6.15074 19.924 6.25188C20.8162 5.72944 21.4871 4.89945 21.811 3.91757C20.9675 4.41082 20.0462 4.75691 19.0865 4.94101C18.6824 4.51749 18.1964 4.18058 17.658 3.95074C17.1196 3.72089 16.5402 3.60293 15.9548 3.60401C13.5848 3.60401 11.6668 5.4941 11.6668 7.82405C11.6651 8.14813 11.7023 8.47125 11.7774 8.78651C10.078 8.70684 8.41382 8.2733 6.8915 7.51364C5.36917 6.75398 4.02218 5.68492 2.93669 4.37485C2.55588 5.01684 2.35448 5.74932 2.35355 6.49576C2.35355 7.95905 3.11699 9.2525 4.26977 10.0103C3.58678 9.99407 2.91779 9.8133 2.31958 9.48332V9.53558C2.31958 11.5824 3.8003 13.2853 5.76007 13.6729C5.39153 13.7711 5.01177 13.8209 4.63037 13.8209C4.35974 13.8214 4.08972 13.7952 3.82425 13.7425C4.36907 15.4192 5.95474 16.6386 7.83307 16.6735C6.30679 17.8498 4.43292 18.4855 2.50598 18.4808C2.16394 18.4803 1.82222 18.46 1.48254 18.4199C3.44283 19.6716 5.7215 20.3337 8.04733 20.3274C15.9456 20.3274 20.2606 13.895 20.2606 8.31617C20.2606 8.13325 20.2558 7.95034 20.2471 7.77179C21.0846 7.17604 21.8092 6.43571 22.3867 5.58555Z" fill="white"/>
</svg>
