<svg width="21" height="20" viewBox="0 0 21 20" fill="none" xmlns="http://www.w3.org/2000/svg">
<path d="M18.7481 0.210449H2.46508C1.57535 0.210449 0.797974 0.85064 0.797974 1.72992V18.0491C0.797974 18.9332 1.57535 19.721 2.46508 19.721H18.7434C19.6379 19.721 20.3086 18.928 20.3086 18.0491V1.72992C20.3138 0.85064 19.6379 0.210449 18.7481 0.210449ZM6.84582 16.4735H4.05075V7.78299H6.84582V16.4735ZM5.54497 6.46167H5.52494C4.63041 6.46167 4.05119 5.79579 4.05119 4.96223C4.05119 4.11344 4.64565 3.46323 5.56021 3.46323C6.47477 3.46323 7.03439 4.10865 7.05443 4.96223C7.05399 5.79579 6.47477 6.46167 5.54497 6.46167ZM17.061 16.4735H14.2659V11.7217C14.2659 10.5833 13.8592 9.80548 12.8479 9.80548C12.0754 9.80548 11.6181 10.3281 11.4147 10.8372C11.3385 11.0201 11.318 11.2692 11.318 11.5235V16.4735H8.52295V7.78299H11.318V8.99239C11.7248 8.41317 12.3602 7.57961 13.8387 7.57961C15.6735 7.57961 17.0614 8.78901 17.0614 11.3964L17.061 16.4735Z" fill="white"/>
</svg>
