<svg width="22" height="18" viewBox="0 0 22 18" fill="none" xmlns="http://www.w3.org/2000/svg">
<path d="M21.3867 2.58555C20.6026 2.92627 19.7729 3.15074 18.924 3.25188C19.8162 2.72944 20.4871 1.89945 20.811 0.917574C19.9675 1.41082 19.0462 1.75691 18.0865 1.94101C17.6824 1.51749 17.1964 1.18058 16.658 0.950736C16.1196 0.720894 15.5402 0.602929 14.9548 0.604011C12.5848 0.604011 10.6668 2.4941 10.6668 4.82405C10.6651 5.14813 10.7023 5.47125 10.7774 5.78651C9.07795 5.70684 7.41382 5.2733 5.8915 4.51364C4.36917 3.75398 3.02218 2.68492 1.93669 1.37485C1.55588 2.01684 1.35448 2.74932 1.35355 3.49576C1.35355 4.95905 2.11699 6.2525 3.26977 7.01028C2.58678 6.99407 1.91779 6.8133 1.31958 6.48332V6.53558C1.31958 8.58245 2.8003 10.2853 4.76007 10.6729C4.39153 10.7711 4.01177 10.8209 3.63037 10.8209C3.35974 10.8214 3.08972 10.7952 2.82425 10.7425C3.36907 12.4192 4.95474 13.6386 6.83307 13.6735C5.30679 14.8498 3.43292 15.4855 1.50598 15.4808C1.16394 15.4803 0.822222 15.46 0.482544 15.4199C2.44283 16.6716 4.7215 17.3337 7.04733 17.3274C14.9456 17.3274 19.2606 10.895 19.2606 5.31617C19.2606 5.13325 19.2558 4.95034 19.2471 4.77179C20.0846 4.17604 20.8092 3.43571 21.3867 2.58555Z" fill="white"/>
</svg>
